<svg xmlns="http://www.w3.org/2000/svg" viewBox="0 0 160 160" role="img" aria-labelledby="title desc">
  <title id="title">Eartha Fresh peacock mark</title>
  <desc id="desc">Layered gradient feather inspired drop for Eartha Fresh</desc>
  <defs>
    <linearGradient id="ring" x1="0%" y1="0%" x2="100%" y2="100%">
      <stop offset="0%" stop-color="#18a4bb" />
      <stop offset="45%" stop-color="#4a7fd1" />
      <stop offset="100%" stop-color="#9a4fb8" />
    </linearGradient>
    <radialGradient id="core" cx="50%" cy="32%" r="68%">
      <stop offset="0%" stop-color="#ffeec7" />
      <stop offset="45%" stop-color="#f3b55c" />
      <stop offset="100%" stop-color="#d06b72" />
    </radialGradient>
    <linearGradient id="stem" x1="50%" y1="0%" x2="50%" y2="100%">
      <stop offset="0%" stop-color="#0fd0c5" />
      <stop offset="60%" stop-color="#1a94c6" />
      <stop offset="100%" stop-color="#135089" />
    </linearGradient>
  </defs>

  <circle
    cx="80"
    cy="80"
    r="68"
    fill="none"
    stroke="url(#ring)"
    stroke-width="12"
    stroke-linecap="round"
    opacity="0.9"
  />

  <path
    d="M80 24c-21.5 23.7-31.5 43.9-31.5 62.2C48.5 109 62.2 123 80 123s31.5-14 31.5-36.8C111.5 67.9 101.5 47.7 80 24Z"
    fill="url(#stem)"
    stroke="#e7f7f8"
    stroke-width="2.2"
    stroke-linejoin="round"
  />
  <path
    d="M80 37c-14.8 16.5-21.8 30.9-21.8 44.2 0 11.5 9 21 21.8 21 12.7 0 21.8-9.5 21.8-21C101.8 68 94.8 53.5 80 37Z"
    fill="url(#core)"
    stroke="#1b2c52"
    stroke-width="1.6"
  />

  <circle cx="80" cy="72" r="9" fill="#0f2c6e" opacity="0.7" />
  <circle cx="80" cy="72" r="5.5" fill="#e8f8ff" />
  <circle cx="80" cy="72" r="2.3" fill="#15203c" />

  <circle cx="63" cy="98" r="4.3" fill="#e7b45c" opacity="0.95" />
  <circle cx="95" cy="104" r="3.5" fill="#5fd6d0" opacity="0.9" />

  <path
    d="M74.5 118c1.7 4.8 4 7.8 5.5 8.9 1.5-1.1 3.8-4.1 5.5-8.9"
    fill="none"
    stroke="#c5d5e1"
    stroke-width="2"
    stroke-linecap="round"
  />
</svg>
