<svg xmlns="http://www.w3.org/2000/svg" xmlns:xlink="http://www.w3.org/1999/xlink" width="336" zoomAndPan="magnify" viewBox="0 0 252 143.999998" height="192" preserveAspectRatio="xMidYMid meet" version="1.0"><defs><g/><clipPath id="4024be8bb2"><path d="M 101.808594 35 L 129 35 L 129 74 L 101.808594 74 Z M 101.808594 35 " clip-rule="nonzero"/></clipPath><clipPath id="e2e1c27e41"><path d="M 105 62 L 144 62 L 144 89.699219 L 105 89.699219 Z M 105 62 " clip-rule="nonzero"/></clipPath><clipPath id="5e5eae75bf"><path d="M 132 46 L 159.558594 46 L 159.558594 86 L 132 86 Z M 132 46 " clip-rule="nonzero"/></clipPath></defs><rect x="-25.2" width="302.4" fill="#ffffff" y="-14.4" height="172.799997" fill-opacity="1"/><rect x="-25.2" width="302.4" fill="#ffffff" y="-14.4" height="172.799997" fill-opacity="1"/><g clip-path="url(#4024be8bb2)"><path fill="#fe9625" d="M 128.476562 62.359375 C 129.015625 61.816406 126.429688 77.191406 111.558594 73.390625 C 104.765625 71.648438 101.84375 65.628906 101.980469 58.976562 C 102.167969 50.984375 106.53125 42.753906 112.664062 37.707031 C 113.175781 37.277344 113.703125 36.886719 114.257812 36.507812 C 114.808594 36.128906 115.257812 35.851562 115.875 35.523438 C 115.875 35.523438 105.179688 55.679688 128.476562 62.359375 Z M 128.476562 62.359375 " fill-opacity="1" fill-rule="nonzero"/></g><path fill="#1cbfd2" d="M 128.5 58.597656 C 129.027344 59.140625 113.792969 56.351562 117.765625 41.429688 C 119.535156 34.816406 125.367188 31.949219 131.785156 32.027344 C 136.335938 32.089844 140.160156 33.339844 144.046875 35.625 C 147.933594 37.90625 150.933594 40.167969 153.453125 43.398438 C 153.804688 43.851562 154.140625 44.308594 154.457031 44.789062 C 154.769531 45.265625 154.957031 45.570312 155.320312 46.265625 C 155.320312 46.265625 135.445312 35.230469 128.5 58.597656 Z M 128.5 58.597656 " fill-opacity="1" fill-rule="nonzero"/><g clip-path="url(#e2e1c27e41)"><path fill="#aac4d1" d="M 132.363281 63.039062 C 131.824219 62.496094 147.09375 65.097656 143.320312 80.070312 C 141.664062 86.605469 136.011719 89.585938 129.667969 89.648438 C 125.214844 89.699219 121.429688 88.613281 117.566406 86.46875 C 114.105469 84.550781 110.78125 82.226562 108.160156 79.222656 C 107.671875 78.667969 107.222656 78.085938 106.796875 77.480469 C 106.367188 76.875 106.003906 76.21875 105.703125 75.714844 C 105.703125 75.714844 125.730469 86.480469 132.363281 63.027344 Z M 132.363281 63.039062 " fill-opacity="1" fill-rule="nonzero"/></g><g clip-path="url(#5e5eae75bf)"><path fill="#72b02b" d="M 149.828125 47.566406 C 134.957031 43.765625 132.386719 59.140625 132.914062 58.597656 C 156.210938 65.289062 145.515625 85.433594 145.515625 85.433594 C 148.773438 83.652344 151.394531 80.839844 153.527344 77.808594 C 156.058594 74.222656 158.316406 70.3125 159.007812 65.917969 C 159.433594 63.191406 159.519531 60.363281 159.007812 57.636719 C 158.066406 52.613281 154.804688 48.828125 149.828125 47.566406 Z M 149.828125 47.566406 " fill-opacity="1" fill-rule="nonzero"/></g><path fill="#ffffff" d="M 150.707031 59.367188 C 150.707031 59.367188 150.667969 51.527344 146.28125 49.257812 C 143.144531 47.628906 138.757812 49.40625 138.957031 49.382812 C 147.070312 48.664062 146.605469 53.207031 146.605469 53.207031 C 139.808594 55.0625 138.957031 51.1875 138.957031 51.1875 C 139.144531 50.707031 143.457031 51.328125 143.457031 51.328125 C 140.234375 49.496094 137.589844 50.417969 137.589844 50.417969 C 137.589844 50.417969 137.855469 54.332031 141.980469 55.203125 C 146.519531 56.160156 150.253906 58.914062 150.695312 59.355469 Z M 150.707031 59.367188 " fill-opacity="1" fill-rule="nonzero"/><path fill="#ffffff" d="M 151.457031 60.210938 C 151.34375 60.074219 155.519531 62.800781 155.570312 65.894531 C 155.632812 69.527344 151.632812 73.605469 151.632812 73.605469 C 151.308594 71.953125 151.121094 70.335938 149.1875 65.804688 C 147.734375 62.398438 150.367188 60.238281 150.367188 60.238281 C 150.367188 60.238281 152.347656 61.675781 152.675781 64.910156 C 152.675781 64.910156 150.980469 61.753906 150.53125 61.589844 C 150.53125 61.589844 147.785156 64.945312 152.523438 68.898438 C 152.523438 68.898438 156.074219 65.679688 151.472656 60.199219 Z M 151.457031 60.210938 " fill-opacity="1" fill-rule="nonzero"/><path fill="#ffffff" d="M 151.171875 73.757812 C 151.15625 73.667969 152.664062 76.230469 151.609375 78.894531 C 150.757812 81.039062 147.359375 83.363281 147.359375 83.363281 C 147.609375 83.199219 147.746094 82.644531 147.835938 82.390625 C 148.375 80.890625 148.535156 79.261719 148.5625 77.671875 C 148.5625 77.226562 148.625 76.835938 148.824219 76.433594 C 149.164062 75.789062 149.726562 75.285156 150.328125 74.894531 C 150.933594 74.503906 150.957031 74.578125 150.957031 74.539062 C 150.957031 74.539062 151.183594 76.558594 150.304688 77.921875 C 150.304688 77.921875 150.730469 75.800781 150.503906 75.726562 C 150.503906 75.726562 148.472656 76.851562 149.515625 79.789062 C 149.515625 79.789062 151.871094 78.640625 151.15625 73.769531 L 151.171875 73.769531 Z M 151.171875 73.757812 " fill-opacity="1" fill-rule="nonzero"/><path fill="#ffffff" d="M 129.140625 54.53125 C 129.667969 52.296875 128.738281 50.882812 128.738281 50.882812 C 128.738281 50.882812 130.253906 50.203125 130.605469 48.878906 C 131.070312 47.085938 130.882812 46.429688 130.882812 46.429688 C 134.945312 46.125 137.339844 42.894531 137.339844 42.894531 C 137.339844 42.894531 139.757812 43.261719 142.066406 42.84375 C 143.847656 42.527344 146.003906 41.191406 146.003906 41.191406 C 147.28125 42.753906 151.496094 43.867188 152.148438 43.652344 C 152.148438 43.652344 145.703125 39.714844 145.601562 38.335938 C 145.601562 38.335938 146.140625 40.207031 141.414062 41.191406 C 137.226562 42.0625 136.425781 40.421875 136.425781 40.421875 C 136.425781 40.421875 136.085938 44.371094 129.113281 45.117188 C 129.113281 45.117188 131.597656 48.851562 126.34375 50.554688 C 126.34375 50.554688 129.464844 53.75 127.347656 56.753906 C 127.347656 56.753906 128.824219 55.910156 129.140625 54.546875 Z M 129.140625 54.53125 " fill-opacity="1" fill-rule="nonzero"/><path fill="#ffffff" d="M 123.921875 56.765625 C 123.921875 56.90625 125.90625 54.316406 123.222656 49.949219 C 123.222656 49.949219 127.660156 47.414062 126.507812 44.28125 C 126.507812 44.28125 132.9375 43.019531 134.230469 38.640625 C 134.230469 38.640625 140.761719 40.371094 143.921875 37.1875 C 140.4375 38.300781 137.351562 38.742188 133.203125 36.230469 C 133.203125 36.230469 132.550781 42.617188 124.386719 42.085938 C 124.386719 42.085938 126.644531 46.464844 120.863281 49.761719 C 120.863281 49.761719 124.210938 53.066406 123.9375 56.753906 L 123.921875 56.753906 Z M 123.921875 56.765625 " fill-opacity="1" fill-rule="nonzero"/><path fill="#ffffff" d="M 119.410156 49.382812 C 119.371094 49.507812 122.96875 45.179688 122.457031 40.371094 C 122.457031 40.371094 132.011719 38.527344 132.851562 33.628906 C 132.851562 33.628906 130.191406 37.503906 126.382812 35.21875 C 126.382812 35.21875 127.683594 39.777344 120.335938 38.515625 C 120.335938 38.515625 122.316406 43.3125 118.117188 44.421875 C 118.117188 44.421875 120.488281 45.644531 119.421875 49.382812 Z M 119.410156 49.382812 " fill-opacity="1" fill-rule="nonzero"/><path fill="#ffffff" d="M 111.257812 43.523438 C 111.257812 43.523438 110.796875 52.335938 115.285156 57.070312 C 118.15625 60.097656 122.28125 63.078125 121.152344 68.65625 C 121.152344 68.65625 117.941406 62.421875 113.476562 59.910156 C 113.476562 59.910156 115.683594 63.925781 114.730469 65.714844 C 114.730469 65.714844 113.429688 63.140625 112.113281 62.839844 C 112.113281 62.839844 113.175781 71.585938 116.636719 72.546875 C 116.636719 72.546875 112.953125 72.847656 109.855469 68.53125 C 106.757812 64.214844 107.472656 62.773438 105.214844 62.183594 C 105.214844 62.183594 108.488281 61.222656 109.792969 62.902344 C 109.792969 62.902344 108.488281 57.6875 106.105469 55.53125 C 106.105469 55.53125 109.730469 55.1875 111.335938 57.472656 C 111.335938 57.472656 108.902344 47.929688 111.273438 43.523438 Z M 111.257812 43.523438 " fill-opacity="1" fill-rule="nonzero"/><path fill="#ffffff" d="M 142.027344 74.222656 C 141.566406 73.894531 140.949219 73.78125 140.398438 73.910156 C 139.871094 74.035156 139.296875 74.453125 139.183594 75.019531 C 138.894531 76.484375 141.878906 76.320312 140.699219 75.183594 C 140.789062 75.828125 139.785156 75.636719 140.199219 75.082031 C 140.777344 74.3125 142.429688 75.511719 141.402344 76.257812 C 141.316406 76.320312 141.238281 76.382812 141.140625 76.433594 C 139.960938 76.976562 138.003906 76.28125 136.914062 75.777344 C 137.902344 75.03125 138.855469 73.984375 139.496094 72.988281 C 140.335938 71.699219 140.839844 69.804688 139.683594 68.542969 C 138.769531 67.535156 137.203125 67.242188 135.949219 67.660156 C 133.628906 68.390625 132.3125 71.660156 135.171875 72.910156 C 138.542969 74.3125 139.144531 69.148438 136.136719 70.449219 C 136.738281 70.449219 137.351562 71.320312 136.550781 71.574219 C 135.195312 71.710938 135.058594 69.804688 136.261719 69.425781 C 137.226562 68.921875 138.871094 69.402344 138.855469 70.640625 C 138.355469 73.351562 135.746094 75.070312 133.839844 76.824219 C 133.902344 76.761719 133.929688 76.546875 133.953125 76.472656 C 133.980469 76.359375 134.003906 76.230469 134.015625 76.117188 C 134.03125 75.902344 134.015625 75.6875 133.980469 75.472656 C 133.890625 75.082031 133.679688 74.742188 133.390625 74.476562 C 132.777344 73.910156 131.886719 73.679688 131.070312 73.730469 C 130.644531 73.757812 130.21875 73.871094 129.839844 74.074219 C 129.226562 74.402344 128.738281 74.980469 128.476562 75.625 C 128.210938 76.28125 128.375 77.027344 128.839844 77.558594 C 129.164062 77.921875 129.628906 78.164062 130.117188 78.125 C 130.59375 78.097656 131.144531 77.746094 131.421875 77.367188 C 131.683594 77 131.796875 76.496094 131.535156 76.066406 C 131.320312 75.726562 130.882812 75.738281 130.53125 75.828125 C 130.519531 75.828125 130.492188 75.828125 130.480469 75.839844 C 131.460938 76.371094 130.304688 77.492188 129.890625 76.40625 C 129.640625 75.699219 130.355469 75.207031 130.921875 75.058594 C 132.8125 74.894531 133.390625 76.75 132.136719 77.785156 C 129.730469 79.777344 127.070312 81.027344 124.398438 81.632812 C 124.488281 81.582031 124.5625 81.53125 124.652344 81.484375 C 125.203125 81.128906 125.703125 80.660156 125.96875 80.054688 C 126.179688 79.578125 126.292969 78.96875 126.105469 78.453125 C 126.078125 78.390625 126.054688 78.339844 126.03125 78.277344 C 125.777344 77.808594 125.226562 77.621094 124.738281 77.542969 C 124.726562 77.542969 124.714844 77.542969 124.699219 77.542969 C 124.046875 77.46875 123.320312 77.605469 122.84375 78.035156 C 122.355469 78.464844 122.003906 79.222656 122.480469 79.878906 C 122.882812 80.421875 123.785156 80.597656 124.398438 79.613281 C 124.511719 79.4375 124.714844 78.769531 123.835938 78.855469 C 124.386719 79.3125 123.421875 79.929688 123.347656 79.160156 C 123.332031 78.984375 123.410156 78.84375 123.460938 78.769531 C 123.785156 78.277344 124.839844 78.238281 125.203125 78.707031 C 125.378906 78.933594 125.402344 79.222656 125.328125 79.5 C 125.253906 79.789062 125.039062 80.003906 124.863281 80.246094 C 124.613281 80.585938 124.199219 81.039062 123.296875 81.597656 C 123.019531 81.761719 122.78125 81.875 122.542969 81.960938 C 121.554688 82.074219 120.574219 82.113281 119.621094 82.0625 C 120.9375 81.886719 121.328125 81.394531 121.328125 80.613281 C 121.328125 80.21875 121 79.878906 120.539062 79.703125 C 120.074219 79.511719 119.597656 79.539062 119.121094 79.726562 C 118.644531 79.929688 118.09375 80.320312 118.253906 80.875 C 118.394531 81.332031 119.144531 81.734375 119.859375 81.179688 C 120 81.078125 120.210938 80.546875 119.535156 80.433594 C 119.824219 80.863281 118.945312 81.089844 119.097656 80.546875 C 119.132812 80.421875 119.222656 80.347656 119.285156 80.296875 C 119.433594 80.183594 119.8125 80.144531 119.972656 80.195312 C 120.625 80.371094 120.714844 80.851562 120.210938 81.292969 C 120.125 81.367188 119.445312 81.695312 119.335938 81.722656 C 119.007812 81.796875 119.144531 81.785156 118.820312 81.824219 C 118.46875 81.859375 118.167969 81.859375 117.855469 81.875 C 117.226562 81.773438 116.625 81.632812 116.035156 81.46875 C 116.300781 81.34375 116.460938 81.054688 116.488281 80.6875 C 116.5 80.421875 116.398438 80.183594 116.1875 80.03125 C 115.773438 79.714844 115.273438 79.625 114.808594 79.90625 C 114.707031 79.96875 114.621094 80.03125 114.570312 80.132812 C 114.496094 80.296875 114.542969 80.511719 114.667969 80.636719 C 114.796875 80.761719 114.984375 80.824219 115.171875 80.824219 C 115.285156 80.824219 115.382812 80.800781 115.472656 80.738281 C 115.558594 80.675781 115.609375 80.5625 115.585938 80.460938 C 115.558594 80.359375 115.460938 80.296875 115.359375 80.257812 C 115.410156 80.347656 115.320312 80.460938 115.222656 80.484375 C 115.160156 80.484375 115.097656 80.484375 115.058594 80.421875 C 115.035156 80.382812 115.046875 80.320312 115.058594 80.285156 C 115.121094 80.167969 115.257812 80.121094 115.382812 80.121094 C 115.511719 80.121094 115.648438 80.15625 115.746094 80.234375 C 115.824219 80.285156 115.875 80.347656 115.898438 80.421875 C 115.9375 80.546875 115.921875 80.777344 115.824219 80.863281 C 115.722656 80.953125 115.535156 81.054688 115.410156 81.078125 C 114.996094 81.167969 114.695312 81.230469 114.28125 81.152344 C 111.648438 80.296875 110.644531 79.5625 109.71875 78.378906 C 110.15625 80.285156 113.050781 81.46875 115.496094 82.417969 C 115.660156 82.46875 116.074219 82.65625 116.222656 82.695312 C 116.636719 82.796875 116.789062 82.933594 117.203125 83.046875 C 117.464844 83.125 117.367188 83.097656 117.617188 83.199219 C 117.867188 83.300781 118.179688 83.527344 118.34375 83.753906 C 118.457031 83.90625 118.542969 84.144531 118.417969 84.324219 C 118.320312 84.472656 118.117188 84.523438 117.941406 84.550781 C 117.804688 84.5625 117.492188 84.472656 117.390625 84.375 C 117.339844 84.324219 117.277344 84.246094 117.265625 84.144531 C 117.214844 83.679688 117.90625 83.996094 117.617188 84.296875 C 118.179688 84.296875 118.082031 83.832031 117.980469 83.730469 C 117.464844 83.175781 116.789062 83.402344 116.613281 83.765625 C 116.398438 84.195312 116.800781 84.601562 117.164062 84.828125 C 117.527344 85.054688 117.929688 85.128906 118.332031 85.042969 C 118.796875 84.941406 119.160156 84.613281 119.132812 84.109375 C 119.109375 83.640625 118.769531 83.324219 118.382812 83.148438 C 118.253906 83.097656 118.128906 83.046875 118.003906 82.996094 C 118.320312 83.011719 118.644531 83.023438 118.957031 83.023438 C 119.886719 83.222656 120.839844 83.375 121.777344 83.539062 C 122.417969 83.652344 123.132812 83.667969 123.761719 83.804688 C 124.160156 83.894531 124.324219 83.917969 124.714844 84.058594 C 124.851562 84.109375 125 84.183594 125.101562 84.296875 C 125.453125 84.6875 125.703125 85.496094 124.824219 85.660156 C 124.613281 85.699219 124.136719 85.597656 123.984375 85.433594 C 123.921875 85.359375 123.808594 85.242188 123.796875 85.066406 C 123.746094 84.308594 124.789062 84.738281 124.324219 85.28125 C 125.191406 85.207031 124.890625 84.601562 124.75 84.4375 C 123.984375 83.589844 123.222656 84.359375 123.046875 84.738281 C 122.707031 85.472656 123.382812 86.242188 124.011719 86.355469 C 124.839844 86.507812 124.925781 86.480469 125.402344 86.40625 C 126.054688 86.292969 126.570312 85.800781 126.617188 85.269531 C 126.71875 84.183594 126.03125 83.046875 122.382812 82.757812 C 123.433594 82.617188 124.476562 82.417969 125.503906 82.203125 C 126.78125 81.9375 127.535156 81.546875 128.800781 81.242188 C 129.414062 81.105469 130.492188 81.027344 131.109375 81.242188 C 131.808594 81.507812 131.921875 82.304688 131.585938 82.910156 C 131.371094 83.300781 131.007812 83.628906 130.554688 83.679688 C 130.105469 83.730469 129.492188 83.414062 129.390625 82.945312 C 129.339844 82.695312 129.414062 82.429688 129.691406 82.351562 C 130.140625 82.226562 130.46875 82.730469 130.269531 83.136719 C 130.140625 83.375 130.792969 83.199219 130.933594 83.125 C 132.800781 81.292969 128.300781 80.574219 127.886719 82.894531 C 127.835938 84.902344 130.105469 85.28125 131.597656 84.664062 C 133.152344 84.019531 134.191406 81.710938 132.585938 80.511719 C 132.273438 80.285156 131.898438 80.144531 131.523438 80.054688 C 131.269531 80.003906 130.21875 79.90625 129.902344 80.054688 C 132.324219 78.554688 138.480469 76.621094 138.679688 79.742188 C 138.679688 80.851562 137.425781 82.089844 136.3125 81.558594 C 134.730469 80.332031 137.339844 78.757812 136.777344 80.976562 C 139.484375 79.132812 134.84375 76.863281 134.191406 80.472656 C 133.816406 82.203125 134.90625 83.023438 135.871094 83.324219 C 139.648438 84.285156 141.628906 79.589844 139.332031 77.582031 C 139.949219 77.671875 140.5625 77.683594 141.164062 77.582031 C 141.640625 77.492188 142.105469 77.304688 142.394531 76.898438 C 142.957031 76.105469 142.832031 74.804688 142.027344 74.222656 Z M 142.027344 74.222656 " fill-opacity="1" fill-rule="nonzero"/><g fill="#72b02b" fill-opacity="1"><g transform="translate(68.558341, 110.925003)"><g><path d="M 5.546875 -0.140625 C 5.628906 -0.140625 5.671875 -0.09375 5.671875 0 C 5.671875 0.0820312 5.628906 0.125 5.546875 0.125 L 1.109375 0.125 C 1.003906 0.125 0.953125 0.0820312 0.953125 0 L 0.953125 -8.578125 C 0.953125 -8.671875 1.003906 -8.71875 1.109375 -8.71875 L 5.546875 -8.71875 C 5.628906 -8.71875 5.671875 -8.671875 5.671875 -8.578125 C 5.671875 -8.484375 5.628906 -8.4375 5.546875 -8.4375 L 1.234375 -8.4375 L 1.234375 -0.140625 Z M 5.546875 -7 C 5.628906 -7 5.671875 -6.953125 5.671875 -6.859375 C 5.671875 -6.765625 5.628906 -6.71875 5.546875 -6.71875 L 2.953125 -6.71875 L 2.953125 -5.296875 L 4.734375 -5.296875 C 4.835938 -5.296875 4.890625 -5.242188 4.890625 -5.140625 C 4.890625 -5.046875 4.835938 -5 4.734375 -5 L 2.8125 -5 C 2.71875 -5 2.671875 -5.046875 2.671875 -5.140625 L 2.671875 -6.859375 C 2.671875 -6.953125 2.71875 -7 2.8125 -7 Z M 4.734375 -3.578125 C 4.835938 -3.578125 4.890625 -3.53125 4.890625 -3.4375 C 4.890625 -3.34375 4.835938 -3.296875 4.734375 -3.296875 L 2.953125 -3.296875 L 2.953125 -1.859375 L 5.546875 -1.859375 C 5.628906 -1.859375 5.671875 -1.8125 5.671875 -1.71875 C 5.671875 -1.625 5.628906 -1.578125 5.546875 -1.578125 L 2.8125 -1.578125 C 2.71875 -1.578125 2.671875 -1.625 2.671875 -1.71875 L 2.671875 -3.4375 C 2.671875 -3.53125 2.71875 -3.578125 2.8125 -3.578125 Z M 4.734375 -3.578125 "/></g></g></g><g fill="#72b02b" fill-opacity="1"><g transform="translate(76.094355, 110.925003)"><g><path d="M 0.46875 -0.078125 C 0.445312 0.00390625 0.382812 0.03125 0.28125 0 C 0.25 -0.0195312 0.222656 -0.046875 0.203125 -0.078125 C 0.191406 -0.109375 0.195312 -0.144531 0.21875 -0.1875 L 3.734375 -8.8125 C 3.753906 -8.875 3.796875 -8.90625 3.859375 -8.90625 C 3.921875 -8.90625 3.96875 -8.875 4 -8.8125 L 7.515625 -0.1875 C 7.523438 -0.144531 7.523438 -0.109375 7.515625 -0.078125 C 7.503906 -0.046875 7.476562 -0.0195312 7.4375 0 C 7.34375 0.03125 7.285156 0.00390625 7.265625 -0.078125 L 3.859375 -8.40625 Z M 3.234375 -2.515625 C 3.128906 -2.515625 3.078125 -2.554688 3.078125 -2.640625 C 3.078125 -2.722656 3.128906 -2.765625 3.234375 -2.765625 L 4.296875 -2.765625 L 3.734375 -4.140625 C 3.703125 -4.222656 3.722656 -4.28125 3.796875 -4.3125 C 3.890625 -4.351562 3.957031 -4.328125 4 -4.234375 L 4.625 -2.703125 C 4.625 -2.679688 4.625 -2.660156 4.625 -2.640625 C 4.625 -2.554688 4.578125 -2.515625 4.484375 -2.515625 Z M 2.328125 -0.078125 C 2.304688 0.00390625 2.25 0.03125 2.15625 0 C 2.113281 -0.0195312 2.082031 -0.046875 2.0625 -0.078125 C 2.050781 -0.109375 2.054688 -0.144531 2.078125 -0.1875 L 2.40625 -0.953125 C 2.40625 -1.015625 2.445312 -1.046875 2.53125 -1.046875 L 5.203125 -1.046875 C 5.265625 -1.046875 5.304688 -1.015625 5.328125 -0.953125 L 5.65625 -0.1875 C 5.664062 -0.144531 5.660156 -0.109375 5.640625 -0.078125 C 5.628906 -0.046875 5.601562 -0.0195312 5.5625 0 C 5.488281 0.0195312 5.429688 -0.00390625 5.390625 -0.078125 L 5.09375 -0.78125 L 2.609375 -0.78125 Z M 2.328125 -0.078125 "/></g></g></g><g fill="#72b02b" fill-opacity="1"><g transform="translate(85.070367, 110.925003)"><g><path d="M 1.234375 0 C 1.234375 0.09375 1.1875 0.140625 1.09375 0.140625 C 1 0.140625 0.953125 0.09375 0.953125 0 L 0.953125 -8.578125 C 0.953125 -8.671875 1 -8.71875 1.09375 -8.71875 L 4.46875 -8.71875 C 4.96875 -8.71875 5.421875 -8.59375 5.828125 -8.34375 C 6.234375 -8.101562 6.554688 -7.773438 6.796875 -7.359375 C 7.035156 -6.953125 7.15625 -6.5 7.15625 -6 C 7.15625 -5.539062 7.050781 -5.113281 6.84375 -4.71875 C 6.632812 -4.332031 6.347656 -4.007812 5.984375 -3.75 C 5.617188 -3.5 5.207031 -3.347656 4.75 -3.296875 L 7.234375 -0.078125 C 7.285156 -0.00390625 7.28125 0.0507812 7.21875 0.09375 C 7.144531 0.15625 7.078125 0.148438 7.015625 0.078125 L 4.375 -3.34375 C 4.34375 -3.363281 4.328125 -3.394531 4.328125 -3.4375 C 4.328125 -3.53125 4.375 -3.578125 4.46875 -3.578125 C 4.914062 -3.578125 5.320312 -3.6875 5.6875 -3.90625 C 6.050781 -4.125 6.335938 -4.414062 6.546875 -4.78125 C 6.753906 -5.15625 6.859375 -5.5625 6.859375 -6 C 6.859375 -6.445312 6.753906 -6.851562 6.546875 -7.21875 C 6.335938 -7.59375 6.050781 -7.890625 5.6875 -8.109375 C 5.320312 -8.328125 4.914062 -8.4375 4.46875 -8.4375 L 1.234375 -8.4375 Z M 3.84375 -5.015625 C 3.75 -5.015625 3.703125 -5.054688 3.703125 -5.140625 C 3.703125 -5.234375 3.75 -5.28125 3.84375 -5.28125 L 4.3125 -5.28125 C 4.519531 -5.28125 4.695312 -5.347656 4.84375 -5.484375 C 4.988281 -5.628906 5.0625 -5.800781 5.0625 -6 C 5.0625 -6.207031 4.988281 -6.378906 4.84375 -6.515625 C 4.695312 -6.648438 4.519531 -6.71875 4.3125 -6.71875 L 2.8125 -6.71875 C 2.71875 -6.71875 2.671875 -6.765625 2.671875 -6.859375 C 2.671875 -6.953125 2.71875 -7 2.8125 -7 L 4.3125 -7 C 4.59375 -7 4.832031 -6.90625 5.03125 -6.71875 C 5.238281 -6.53125 5.34375 -6.289062 5.34375 -6 C 5.34375 -5.71875 5.238281 -5.484375 5.03125 -5.296875 C 4.832031 -5.109375 4.59375 -5.015625 4.3125 -5.015625 Z M 5.140625 -0.078125 C 5.203125 -0.00390625 5.195312 0.0546875 5.125 0.109375 C 5.039062 0.171875 4.972656 0.160156 4.921875 0.078125 L 2.953125 -2.5625 L 2.953125 0 C 2.953125 0.03125 2.9375 0.0625 2.90625 0.09375 C 2.882812 0.125 2.851562 0.140625 2.8125 0.140625 C 2.71875 0.140625 2.671875 0.09375 2.671875 0 L 2.671875 -2.96875 C 2.660156 -3.007812 2.675781 -3.050781 2.71875 -3.09375 C 2.789062 -3.144531 2.859375 -3.132812 2.921875 -3.0625 Z M 5.140625 -0.078125 "/></g></g></g><g fill="#72b02b" fill-opacity="1"><g transform="translate(93.73438, 110.925003)"><g><path d="M 0.375 -8.4375 C 0.28125 -8.4375 0.234375 -8.476562 0.234375 -8.5625 C 0.234375 -8.65625 0.28125 -8.703125 0.375 -8.703125 L 6.359375 -8.703125 C 6.453125 -8.703125 6.5 -8.65625 6.5 -8.5625 C 6.5 -8.476562 6.453125 -8.4375 6.359375 -8.4375 Z M 0.375 -6.703125 C 0.28125 -6.703125 0.234375 -6.753906 0.234375 -6.859375 C 0.234375 -6.953125 0.28125 -7 0.375 -7 L 2.515625 -7 C 2.609375 -7 2.65625 -6.953125 2.65625 -6.859375 L 2.65625 0 C 2.65625 0.0820312 2.609375 0.125 2.515625 0.125 C 2.421875 0.125 2.375 0.0820312 2.375 0 L 2.375 -6.703125 Z M 6.375 -7 C 6.457031 -7 6.5 -6.953125 6.5 -6.859375 C 6.5 -6.753906 6.457031 -6.703125 6.375 -6.703125 L 4.359375 -6.703125 L 4.359375 0 C 4.359375 0.0820312 4.3125 0.125 4.21875 0.125 C 4.132812 0.125 4.09375 0.0820312 4.09375 0 L 4.09375 -6.859375 C 4.09375 -6.953125 4.132812 -7 4.21875 -7 Z M 6.375 -7 "/></g></g></g><g fill="#72b02b" fill-opacity="1"><g transform="translate(101.786396, 110.925003)"><g><path d="M 1.234375 0 C 1.234375 0.0820312 1.1875 0.125 1.09375 0.125 C 1 0.125 0.953125 0.0820312 0.953125 0 L 0.953125 -8.578125 C 0.953125 -8.671875 1 -8.71875 1.09375 -8.71875 C 1.1875 -8.71875 1.234375 -8.671875 1.234375 -8.578125 Z M 2.65625 -8.578125 C 2.65625 -8.671875 2.707031 -8.71875 2.8125 -8.71875 C 2.90625 -8.71875 2.953125 -8.671875 2.953125 -8.578125 L 2.953125 -5.296875 L 5.25 -5.296875 L 5.25 -8.578125 C 5.25 -8.671875 5.289062 -8.71875 5.375 -8.71875 C 5.46875 -8.71875 5.515625 -8.671875 5.515625 -8.578125 L 5.515625 -5.140625 C 5.515625 -5.046875 5.46875 -5 5.375 -5 L 2.8125 -5 C 2.78125 -5 2.742188 -5.015625 2.703125 -5.046875 C 2.671875 -5.078125 2.65625 -5.109375 2.65625 -5.140625 Z M 6.953125 -8.578125 C 6.953125 -8.671875 7 -8.71875 7.09375 -8.71875 C 7.1875 -8.71875 7.234375 -8.671875 7.234375 -8.578125 L 7.234375 0 C 7.234375 0.0820312 7.1875 0.125 7.09375 0.125 C 7 0.125 6.953125 0.0820312 6.953125 0 Z M 5.515625 0 C 5.515625 0.0820312 5.46875 0.125 5.375 0.125 C 5.289062 0.125 5.25 0.0820312 5.25 0 L 5.25 -3.296875 L 2.953125 -3.296875 L 2.953125 0 C 2.953125 0.0820312 2.90625 0.125 2.8125 0.125 C 2.707031 0.125 2.65625 0.0820312 2.65625 0 L 2.65625 -3.4375 C 2.65625 -3.53125 2.707031 -3.578125 2.8125 -3.578125 L 5.375 -3.578125 C 5.46875 -3.578125 5.515625 -3.53125 5.515625 -3.4375 Z M 5.515625 0 "/></g></g></g><g fill="#72b02b" fill-opacity="1"><g transform="translate(111.206405, 110.925003)"><g><path d="M 0.46875 -0.078125 C 0.445312 0.00390625 0.382812 0.03125 0.28125 0 C 0.25 -0.0195312 0.222656 -0.046875 0.203125 -0.078125 C 0.191406 -0.109375 0.195312 -0.144531 0.21875 -0.1875 L 3.734375 -8.8125 C 3.753906 -8.875 3.796875 -8.90625 3.859375 -8.90625 C 3.921875 -8.90625 3.96875 -8.875 4 -8.8125 L 7.515625 -0.1875 C 7.523438 -0.144531 7.523438 -0.109375 7.515625 -0.078125 C 7.503906 -0.046875 7.476562 -0.0195312 7.4375 0 C 7.34375 0.03125 7.285156 0.00390625 7.265625 -0.078125 L 3.859375 -8.40625 Z M 3.234375 -2.515625 C 3.128906 -2.515625 3.078125 -2.554688 3.078125 -2.640625 C 3.078125 -2.722656 3.128906 -2.765625 3.234375 -2.765625 L 4.296875 -2.765625 L 3.734375 -4.140625 C 3.703125 -4.222656 3.722656 -4.28125 3.796875 -4.3125 C 3.890625 -4.351562 3.957031 -4.328125 4 -4.234375 L 4.625 -2.703125 C 4.625 -2.679688 4.625 -2.660156 4.625 -2.640625 C 4.625 -2.554688 4.578125 -2.515625 4.484375 -2.515625 Z M 2.328125 -0.078125 C 2.304688 0.00390625 2.25 0.03125 2.15625 0 C 2.113281 -0.0195312 2.082031 -0.046875 2.0625 -0.078125 C 2.050781 -0.109375 2.054688 -0.144531 2.078125 -0.1875 L 2.40625 -0.953125 C 2.40625 -1.015625 2.445312 -1.046875 2.53125 -1.046875 L 5.203125 -1.046875 C 5.265625 -1.046875 5.304688 -1.015625 5.328125 -0.953125 L 5.65625 -0.1875 C 5.664062 -0.144531 5.660156 -0.109375 5.640625 -0.078125 C 5.628906 -0.046875 5.601562 -0.0195312 5.5625 0 C 5.488281 0.0195312 5.429688 -0.00390625 5.390625 -0.078125 L 5.09375 -0.78125 L 2.609375 -0.78125 Z M 2.328125 -0.078125 "/></g></g></g><g fill="#72b02b" fill-opacity="1"><g transform="translate(120.182418, 110.925003)"><g/></g></g><g fill="#72b02b" fill-opacity="1"><g transform="translate(124.802421, 110.925003)"><g><path d="M 1.25 0 C 1.25 0.0820312 1.195312 0.125 1.09375 0.125 C 1 0.125 0.953125 0.0820312 0.953125 0 L 0.953125 -8.578125 C 0.953125 -8.671875 1.003906 -8.71875 1.109375 -8.71875 L 5.546875 -8.71875 C 5.628906 -8.71875 5.671875 -8.671875 5.671875 -8.578125 C 5.671875 -8.484375 5.628906 -8.4375 5.546875 -8.4375 L 1.25 -8.4375 Z M 5.546875 -7 C 5.628906 -7 5.671875 -6.953125 5.671875 -6.859375 C 5.671875 -6.765625 5.628906 -6.71875 5.546875 -6.71875 L 2.96875 -6.71875 L 2.96875 -5.296875 L 4.75 -5.296875 C 4.84375 -5.296875 4.890625 -5.242188 4.890625 -5.140625 C 4.890625 -5.046875 4.84375 -5 4.75 -5 L 2.8125 -5 C 2.71875 -5 2.671875 -5.046875 2.671875 -5.140625 L 2.671875 -6.859375 C 2.671875 -6.953125 2.71875 -7 2.8125 -7 Z M 4.75 -3.578125 C 4.84375 -3.578125 4.890625 -3.523438 4.890625 -3.421875 C 4.890625 -3.328125 4.84375 -3.28125 4.75 -3.28125 L 2.96875 -3.28125 L 2.96875 0 C 2.96875 0.0820312 2.914062 0.125 2.8125 0.125 C 2.71875 0.125 2.671875 0.0820312 2.671875 0 L 2.671875 -3.4375 C 2.671875 -3.53125 2.71875 -3.578125 2.8125 -3.578125 Z M 4.75 -3.578125 "/></g></g></g><g fill="#72b02b" fill-opacity="1"><g transform="translate(132.158431, 110.925003)"><g><path d="M 1.234375 0 C 1.234375 0.09375 1.1875 0.140625 1.09375 0.140625 C 1 0.140625 0.953125 0.09375 0.953125 0 L 0.953125 -8.578125 C 0.953125 -8.671875 1 -8.71875 1.09375 -8.71875 L 4.46875 -8.71875 C 4.96875 -8.71875 5.421875 -8.59375 5.828125 -8.34375 C 6.234375 -8.101562 6.554688 -7.773438 6.796875 -7.359375 C 7.035156 -6.953125 7.15625 -6.5 7.15625 -6 C 7.15625 -5.539062 7.050781 -5.113281 6.84375 -4.71875 C 6.632812 -4.332031 6.347656 -4.007812 5.984375 -3.75 C 5.617188 -3.5 5.207031 -3.347656 4.75 -3.296875 L 7.234375 -0.078125 C 7.285156 -0.00390625 7.28125 0.0507812 7.21875 0.09375 C 7.144531 0.15625 7.078125 0.148438 7.015625 0.078125 L 4.375 -3.34375 C 4.34375 -3.363281 4.328125 -3.394531 4.328125 -3.4375 C 4.328125 -3.53125 4.375 -3.578125 4.46875 -3.578125 C 4.914062 -3.578125 5.320312 -3.6875 5.6875 -3.90625 C 6.050781 -4.125 6.335938 -4.414062 6.546875 -4.78125 C 6.753906 -5.15625 6.859375 -5.5625 6.859375 -6 C 6.859375 -6.445312 6.753906 -6.851562 6.546875 -7.21875 C 6.335938 -7.59375 6.050781 -7.890625 5.6875 -8.109375 C 5.320312 -8.328125 4.914062 -8.4375 4.46875 -8.4375 L 1.234375 -8.4375 Z M 3.84375 -5.015625 C 3.75 -5.015625 3.703125 -5.054688 3.703125 -5.140625 C 3.703125 -5.234375 3.75 -5.28125 3.84375 -5.28125 L 4.3125 -5.28125 C 4.519531 -5.28125 4.695312 -5.347656 4.84375 -5.484375 C 4.988281 -5.628906 5.0625 -5.800781 5.0625 -6 C 5.0625 -6.207031 4.988281 -6.378906 4.84375 -6.515625 C 4.695312 -6.648438 4.519531 -6.71875 4.3125 -6.71875 L 2.8125 -6.71875 C 2.71875 -6.71875 2.671875 -6.765625 2.671875 -6.859375 C 2.671875 -6.953125 2.71875 -7 2.8125 -7 L 4.3125 -7 C 4.59375 -7 4.832031 -6.90625 5.03125 -6.71875 C 5.238281 -6.53125 5.34375 -6.289062 5.34375 -6 C 5.34375 -5.71875 5.238281 -5.484375 5.03125 -5.296875 C 4.832031 -5.109375 4.59375 -5.015625 4.3125 -5.015625 Z M 5.140625 -0.078125 C 5.203125 -0.00390625 5.195312 0.0546875 5.125 0.109375 C 5.039062 0.171875 4.972656 0.160156 4.921875 0.078125 L 2.953125 -2.5625 L 2.953125 0 C 2.953125 0.03125 2.9375 0.0625 2.90625 0.09375 C 2.882812 0.125 2.851562 0.140625 2.8125 0.140625 C 2.71875 0.140625 2.671875 0.09375 2.671875 0 L 2.671875 -2.96875 C 2.660156 -3.007812 2.675781 -3.050781 2.71875 -3.09375 C 2.789062 -3.144531 2.859375 -3.132812 2.921875 -3.0625 Z M 5.140625 -0.078125 "/></g></g></g><g fill="#72b02b" fill-opacity="1"><g transform="translate(140.822443, 110.925003)"><g><path d="M 5.546875 -0.140625 C 5.628906 -0.140625 5.671875 -0.09375 5.671875 0 C 5.671875 0.0820312 5.628906 0.125 5.546875 0.125 L 1.109375 0.125 C 1.003906 0.125 0.953125 0.0820312 0.953125 0 L 0.953125 -8.578125 C 0.953125 -8.671875 1.003906 -8.71875 1.109375 -8.71875 L 5.546875 -8.71875 C 5.628906 -8.71875 5.671875 -8.671875 5.671875 -8.578125 C 5.671875 -8.484375 5.628906 -8.4375 5.546875 -8.4375 L 1.234375 -8.4375 L 1.234375 -0.140625 Z M 5.546875 -7 C 5.628906 -7 5.671875 -6.953125 5.671875 -6.859375 C 5.671875 -6.765625 5.628906 -6.71875 5.546875 -6.71875 L 2.953125 -6.71875 L 2.953125 -5.296875 L 4.734375 -5.296875 C 4.835938 -5.296875 4.890625 -5.242188 4.890625 -5.140625 C 4.890625 -5.046875 4.835938 -5 4.734375 -5 L 2.8125 -5 C 2.71875 -5 2.671875 -5.046875 2.671875 -5.140625 L 2.671875 -6.859375 C 2.671875 -6.953125 2.71875 -7 2.8125 -7 Z M 4.734375 -3.578125 C 4.835938 -3.578125 4.890625 -3.53125 4.890625 -3.4375 C 4.890625 -3.34375 4.835938 -3.296875 4.734375 -3.296875 L 2.953125 -3.296875 L 2.953125 -1.859375 L 5.546875 -1.859375 C 5.628906 -1.859375 5.671875 -1.8125 5.671875 -1.71875 C 5.671875 -1.625 5.628906 -1.578125 5.546875 -1.578125 L 2.8125 -1.578125 C 2.71875 -1.578125 2.671875 -1.625 2.671875 -1.71875 L 2.671875 -3.4375 C 2.671875 -3.53125 2.71875 -3.578125 2.8125 -3.578125 Z M 4.734375 -3.578125 "/></g></g></g><g fill="#72b02b" fill-opacity="1"><g transform="translate(148.358457, 110.925003)"><g><path d="M 5.40625 -8.390625 C 5.488281 -8.359375 5.515625 -8.300781 5.484375 -8.21875 C 5.453125 -8.132812 5.390625 -8.109375 5.296875 -8.140625 C 4.878906 -8.285156 4.441406 -8.390625 3.984375 -8.453125 C 3.535156 -8.515625 3.101562 -8.492188 2.6875 -8.390625 C 2.28125 -8.296875 1.914062 -8.078125 1.59375 -7.734375 C 1.34375 -7.453125 1.160156 -7.113281 1.046875 -6.71875 C 0.941406 -6.320312 0.929688 -5.921875 1.015625 -5.515625 C 1.109375 -5.117188 1.328125 -4.765625 1.671875 -4.453125 C 1.960938 -4.191406 2.257812 -3.992188 2.5625 -3.859375 C 2.875 -3.734375 3.164062 -3.617188 3.4375 -3.515625 C 3.707031 -3.421875 3.925781 -3.300781 4.09375 -3.15625 C 4.269531 -3.019531 4.363281 -2.8125 4.375 -2.53125 C 4.394531 -2.25 4.296875 -2.015625 4.078125 -1.828125 C 3.867188 -1.648438 3.625 -1.550781 3.34375 -1.53125 C 2.96875 -1.507812 2.550781 -1.550781 2.09375 -1.65625 C 1.644531 -1.769531 1.234375 -1.96875 0.859375 -2.25 C 0.773438 -2.300781 0.757812 -2.363281 0.8125 -2.4375 C 0.875 -2.507812 0.941406 -2.519531 1.015625 -2.46875 C 1.203125 -2.34375 1.425781 -2.222656 1.6875 -2.109375 C 1.957031 -1.992188 2.234375 -1.910156 2.515625 -1.859375 C 2.796875 -1.804688 3.0625 -1.789062 3.3125 -1.8125 C 3.5625 -1.832031 3.757812 -1.910156 3.90625 -2.046875 C 4.050781 -2.179688 4.113281 -2.34375 4.09375 -2.53125 C 4.082031 -2.71875 4.007812 -2.875 3.875 -3 C 3.757812 -3.09375 3.578125 -3.1875 3.328125 -3.28125 C 3.085938 -3.375 2.816406 -3.484375 2.515625 -3.609375 C 2.210938 -3.742188 1.921875 -3.910156 1.640625 -4.109375 C 1.359375 -4.316406 1.128906 -4.570312 0.953125 -4.875 C 0.773438 -5.1875 0.6875 -5.566406 0.6875 -6.015625 C 0.6875 -6.640625 0.832031 -7.164062 1.125 -7.59375 C 1.425781 -8.03125 1.832031 -8.347656 2.34375 -8.546875 C 2.851562 -8.753906 3.425781 -8.8125 4.0625 -8.71875 C 4.226562 -8.695312 4.421875 -8.660156 4.640625 -8.609375 C 4.867188 -8.554688 5.125 -8.484375 5.40625 -8.390625 Z M 0.640625 -0.4375 C 0.554688 -0.476562 0.535156 -0.539062 0.578125 -0.625 C 0.628906 -0.707031 0.695312 -0.726562 0.78125 -0.6875 C 1.125 -0.507812 1.492188 -0.363281 1.890625 -0.25 C 2.296875 -0.132812 2.695312 -0.0703125 3.09375 -0.0625 C 3.5 -0.0625 3.878906 -0.117188 4.234375 -0.234375 C 4.597656 -0.347656 4.910156 -0.535156 5.171875 -0.796875 C 5.441406 -1.078125 5.632812 -1.410156 5.75 -1.796875 C 5.863281 -2.191406 5.875 -2.585938 5.78125 -2.984375 C 5.695312 -3.390625 5.484375 -3.75 5.140625 -4.0625 C 4.847656 -4.34375 4.546875 -4.550781 4.234375 -4.6875 C 3.921875 -4.832031 3.628906 -4.953125 3.359375 -5.046875 C 3.097656 -5.148438 2.878906 -5.269531 2.703125 -5.40625 C 2.523438 -5.550781 2.425781 -5.757812 2.40625 -6.03125 C 2.40625 -6.3125 2.5 -6.546875 2.6875 -6.734375 C 2.875 -6.921875 3.101562 -7.015625 3.375 -7.015625 C 3.914062 -7.046875 4.519531 -6.925781 5.1875 -6.65625 C 5.269531 -6.625 5.289062 -6.566406 5.25 -6.484375 C 5.21875 -6.398438 5.160156 -6.375 5.078125 -6.40625 C 4.867188 -6.5 4.597656 -6.585938 4.265625 -6.671875 C 3.941406 -6.753906 3.640625 -6.78125 3.359375 -6.75 C 3.179688 -6.71875 3.019531 -6.648438 2.875 -6.546875 C 2.738281 -6.441406 2.675781 -6.285156 2.6875 -6.078125 C 2.6875 -5.867188 2.773438 -5.695312 2.953125 -5.5625 C 3.066406 -5.488281 3.242188 -5.398438 3.484375 -5.296875 C 3.734375 -5.203125 4.003906 -5.082031 4.296875 -4.9375 C 4.597656 -4.800781 4.882812 -4.628906 5.15625 -4.421875 C 5.4375 -4.210938 5.664062 -3.953125 5.84375 -3.640625 C 6.03125 -3.335938 6.125 -2.972656 6.125 -2.546875 C 6.125 -2.003906 6.007812 -1.539062 5.78125 -1.15625 C 5.5625 -0.769531 5.257812 -0.460938 4.875 -0.234375 C 4.5 -0.015625 4.0625 0.113281 3.5625 0.15625 C 3.0625 0.207031 2.539062 0.171875 2 0.046875 C 1.789062 -0.00390625 1.570312 -0.0664062 1.34375 -0.140625 C 1.113281 -0.222656 0.878906 -0.320312 0.640625 -0.4375 Z M 0.640625 -0.4375 "/></g></g></g><g fill="#72b02b" fill-opacity="1"><g transform="translate(156.170468, 110.925003)"><g><path d="M 1.234375 0 C 1.234375 0.0820312 1.1875 0.125 1.09375 0.125 C 1 0.125 0.953125 0.0820312 0.953125 0 L 0.953125 -8.578125 C 0.953125 -8.671875 1 -8.71875 1.09375 -8.71875 C 1.1875 -8.71875 1.234375 -8.671875 1.234375 -8.578125 Z M 2.65625 -8.578125 C 2.65625 -8.671875 2.707031 -8.71875 2.8125 -8.71875 C 2.90625 -8.71875 2.953125 -8.671875 2.953125 -8.578125 L 2.953125 -5.296875 L 5.25 -5.296875 L 5.25 -8.578125 C 5.25 -8.671875 5.289062 -8.71875 5.375 -8.71875 C 5.46875 -8.71875 5.515625 -8.671875 5.515625 -8.578125 L 5.515625 -5.140625 C 5.515625 -5.046875 5.46875 -5 5.375 -5 L 2.8125 -5 C 2.78125 -5 2.742188 -5.015625 2.703125 -5.046875 C 2.671875 -5.078125 2.65625 -5.109375 2.65625 -5.140625 Z M 6.953125 -8.578125 C 6.953125 -8.671875 7 -8.71875 7.09375 -8.71875 C 7.1875 -8.71875 7.234375 -8.671875 7.234375 -8.578125 L 7.234375 0 C 7.234375 0.0820312 7.1875 0.125 7.09375 0.125 C 7 0.125 6.953125 0.0820312 6.953125 0 Z M 5.515625 0 C 5.515625 0.0820312 5.46875 0.125 5.375 0.125 C 5.289062 0.125 5.25 0.0820312 5.25 0 L 5.25 -3.296875 L 2.953125 -3.296875 L 2.953125 0 C 2.953125 0.0820312 2.90625 0.125 2.8125 0.125 C 2.707031 0.125 2.65625 0.0820312 2.65625 0 L 2.65625 -3.4375 C 2.65625 -3.53125 2.707031 -3.578125 2.8125 -3.578125 L 5.375 -3.578125 C 5.46875 -3.578125 5.515625 -3.53125 5.515625 -3.4375 Z M 5.515625 0 "/></g></g></g><g fill="#72b02b" fill-opacity="1"><g transform="translate(165.590477, 110.925003)"><g/></g></g><g fill="#72b02b" fill-opacity="1"><g transform="translate(170.21048, 110.925003)"><g><path d="M 1.234375 0 C 1.234375 0.0820312 1.191406 0.125 1.109375 0.125 C 1.003906 0.125 0.953125 0.0820312 0.953125 0 L 0.953125 -8.578125 C 0.953125 -8.671875 1.003906 -8.71875 1.109375 -8.71875 C 1.191406 -8.71875 1.234375 -8.671875 1.234375 -8.578125 Z M 2.953125 0 C 2.953125 0.0820312 2.90625 0.125 2.8125 0.125 C 2.71875 0.125 2.671875 0.0820312 2.671875 0 L 2.671875 -8.578125 C 2.671875 -8.671875 2.71875 -8.71875 2.8125 -8.71875 C 2.90625 -8.71875 2.953125 -8.671875 2.953125 -8.578125 Z M 2.953125 0 "/></g></g></g><g fill="#72b02b" fill-opacity="1"><g transform="translate(175.346485, 110.925003)"><g><path d="M 2.546875 -8.5 C 2.484375 -8.570312 2.488281 -8.632812 2.5625 -8.6875 C 2.644531 -8.738281 2.710938 -8.726562 2.765625 -8.65625 L 6.234375 -3.6875 L 6.234375 -8.5625 C 6.234375 -8.664062 6.28125 -8.71875 6.375 -8.71875 C 6.476562 -8.71875 6.53125 -8.664062 6.53125 -8.5625 L 6.53125 -3.234375 C 6.53125 -3.171875 6.492188 -3.128906 6.421875 -3.109375 C 6.359375 -3.085938 6.304688 -3.101562 6.265625 -3.15625 Z M 1.234375 0 C 1.234375 0.0820312 1.1875 0.125 1.09375 0.125 C 1 0.125 0.953125 0.0820312 0.953125 0 L 0.953125 -8.5625 C 0.953125 -8.664062 1 -8.71875 1.09375 -8.71875 C 1.1875 -8.71875 1.234375 -8.664062 1.234375 -8.5625 Z M 8.234375 0 C 8.234375 0.0820312 8.179688 0.125 8.078125 0.125 C 7.984375 0.125 7.9375 0.0820312 7.9375 0 L 7.9375 -8.5625 C 7.9375 -8.664062 7.984375 -8.71875 8.078125 -8.71875 C 8.179688 -8.71875 8.234375 -8.664062 8.234375 -8.5625 Z M 6.65625 -0.078125 C 6.707031 -0.00390625 6.695312 0.0546875 6.625 0.109375 C 6.550781 0.160156 6.484375 0.148438 6.421875 0.078125 L 2.96875 -4.890625 L 2.96875 0 C 2.96875 0.0820312 2.914062 0.125 2.8125 0.125 C 2.71875 0.125 2.671875 0.0820312 2.671875 0 L 2.671875 -5.34375 C 2.671875 -5.40625 2.703125 -5.445312 2.765625 -5.46875 C 2.835938 -5.5 2.894531 -5.484375 2.9375 -5.421875 Z M 6.65625 -0.078125 "/></g></g></g><g fill="#72b02b" fill-opacity="1"><g transform="translate(185.762496, 110.925003)"><g><path d="M 6.765625 -8.453125 C 6.847656 -8.421875 6.875 -8.359375 6.84375 -8.265625 C 6.832031 -8.234375 6.804688 -8.210938 6.765625 -8.203125 C 6.722656 -8.191406 6.6875 -8.191406 6.65625 -8.203125 C 6.144531 -8.410156 5.601562 -8.515625 5.03125 -8.515625 C 4.351562 -8.515625 3.757812 -8.40625 3.25 -8.1875 C 2.75 -7.96875 2.320312 -7.671875 1.96875 -7.296875 C 1.625 -6.929688 1.351562 -6.519531 1.15625 -6.0625 C 0.945312 -5.519531 0.84375 -4.945312 0.84375 -4.34375 C 0.84375 -3.738281 0.945312 -3.164062 1.15625 -2.625 C 1.351562 -2.164062 1.625 -1.75 1.96875 -1.375 C 2.320312 -1 2.75 -0.703125 3.25 -0.484375 C 3.757812 -0.273438 4.351562 -0.171875 5.03125 -0.171875 C 5.3125 -0.171875 5.585938 -0.195312 5.859375 -0.25 C 6.140625 -0.300781 6.40625 -0.378906 6.65625 -0.484375 C 6.6875 -0.503906 6.722656 -0.503906 6.765625 -0.484375 C 6.804688 -0.472656 6.832031 -0.453125 6.84375 -0.421875 C 6.882812 -0.328125 6.859375 -0.265625 6.765625 -0.234375 C 6.222656 -0.00390625 5.644531 0.109375 5.03125 0.109375 C 4.3125 0.109375 3.679688 -0.00390625 3.140625 -0.234375 C 2.609375 -0.472656 2.15625 -0.789062 1.78125 -1.1875 C 1.40625 -1.582031 1.117188 -2.023438 0.921875 -2.515625 C 0.691406 -3.097656 0.578125 -3.707031 0.578125 -4.34375 C 0.578125 -4.976562 0.691406 -5.582031 0.921875 -6.15625 C 1.117188 -6.65625 1.40625 -7.101562 1.78125 -7.5 C 2.15625 -7.894531 2.609375 -8.207031 3.140625 -8.4375 C 3.679688 -8.675781 4.3125 -8.796875 5.03125 -8.796875 C 5.625 -8.796875 6.203125 -8.679688 6.765625 -8.453125 Z M 6.4375 -2.25 C 6.507812 -2.28125 6.566406 -2.257812 6.609375 -2.1875 C 6.660156 -2.113281 6.644531 -2.050781 6.5625 -2 C 6.3125 -1.851562 6.066406 -1.753906 5.828125 -1.703125 C 5.585938 -1.648438 5.320312 -1.625 5.03125 -1.625 C 4.394531 -1.625 3.867188 -1.773438 3.453125 -2.078125 C 3.046875 -2.390625 2.753906 -2.773438 2.578125 -3.234375 C 2.441406 -3.578125 2.375 -3.945312 2.375 -4.34375 C 2.375 -4.738281 2.441406 -5.109375 2.578125 -5.453125 C 2.753906 -5.898438 3.046875 -6.28125 3.453125 -6.59375 C 3.867188 -6.90625 4.394531 -7.0625 5.03125 -7.0625 C 5.320312 -7.0625 5.585938 -7.035156 5.828125 -6.984375 C 6.066406 -6.929688 6.3125 -6.832031 6.5625 -6.6875 C 6.632812 -6.632812 6.648438 -6.566406 6.609375 -6.484375 C 6.566406 -6.421875 6.507812 -6.40625 6.4375 -6.4375 C 6.195312 -6.570312 5.96875 -6.664062 5.75 -6.71875 C 5.539062 -6.769531 5.300781 -6.796875 5.03125 -6.796875 C 4.445312 -6.796875 3.972656 -6.65625 3.609375 -6.375 C 3.253906 -6.09375 2.992188 -5.753906 2.828125 -5.359375 C 2.703125 -5.035156 2.640625 -4.691406 2.640625 -4.328125 C 2.640625 -3.972656 2.703125 -3.640625 2.828125 -3.328125 C 2.992188 -2.921875 3.253906 -2.578125 3.609375 -2.296875 C 3.972656 -2.023438 4.445312 -1.890625 5.03125 -1.890625 C 5.300781 -1.890625 5.539062 -1.914062 5.75 -1.96875 C 5.96875 -2.019531 6.195312 -2.113281 6.4375 -2.25 Z M 6.4375 -2.25 "/></g></g></g></svg>